<?xml version="1.0" encoding="UTF-8" standalone="no"?>
<svg
   xmlns:dc="http://purl.org/dc/elements/1.1/"
   xmlns:cc="http://creativecommons.org/ns#"
   xmlns:rdf="http://www.w3.org/1999/02/22-rdf-syntax-ns#"
   xmlns:svg="http://www.w3.org/2000/svg"
   xmlns="http://www.w3.org/2000/svg"
   xmlns:xlink="http://www.w3.org/1999/xlink"
   xmlns:sodipodi="http://sodipodi.sourceforge.net/DTD/sodipodi-0.dtd"
   xmlns:inkscape="http://www.inkscape.org/namespaces/inkscape"
   width="125px"
   height="125px"
   viewBox="0 0 125 125"
   version="1.1"
   id="svg914"
   sodipodi:docname="malt.svg"
   inkscape:version="0.92.2 5c3e80d, 2017-08-06">
  <metadata
     id="metadata918">
    <rdf:RDF>
      <cc:Work
         rdf:about="">
        <dc:format>image/svg+xml</dc:format>
        <dc:type
           rdf:resource="http://purl.org/dc/dcmitype/StillImage" />
      </cc:Work>
    </rdf:RDF>
  </metadata>
  <sodipodi:namedview
     pagecolor="#ffffff"
     bordercolor="#666666"
     borderopacity="1"
     objecttolerance="10"
     gridtolerance="10"
     guidetolerance="10"
     inkscape:pageopacity="0"
     inkscape:pageshadow="2"
     inkscape:window-width="1440"
     inkscape:window-height="855"
     id="namedview916"
     showgrid="false"
     inkscape:zoom="5.136"
     inkscape:cx="58.891583"
     inkscape:cy="60.923325"
     inkscape:window-x="0"
     inkscape:window-y="1"
     inkscape:window-maximized="1"
     inkscape:current-layer="IDENTITY-/-COLORS-/-FONTS" />
  <!-- Generator: sketchtool 47.1 (45422) - http://www.bohemiancoding.com/sketch -->
  <title
     id="title885">013E7E61-C463-49F1-BCDD-ABD1C42E4898</title>
  <desc
     id="desc887">Created with sketchtool.</desc>
  <defs
     id="defs895">
    <linearGradient
       x1="50%"
       y1="0%"
       x2="50%"
       y2="100%"
       id="linearGradient-1">
      <stop
         stop-color="#FF4E65"
         offset="0%"
         id="stop889" />
      <stop
         stop-color="#FF2674"
         offset="100%"
         id="stop891" />
    </linearGradient>
    <polygon
       id="path-2"
       points="0.431258199 23.6170213 22.2250043 23.6170213 22.2250043 0.869189362 0.431258199 0.869189362 0.431258199 23.6170213" />
  </defs>
  <g
     id="IDENTITY-/-COLORS-/-FONTS"
     stroke-width="1"
     stroke="none"
     fill-rule="evenodd"
     fill="none">
    <path
       style="fill:#000000;fill-opacity:1;stroke-width:0.95946223"
       d="M 62.695312 0.77734375 A 59.966389 59.966389 0 0 0 2.7246094 60.748047 A 59.966389 59.966389 0 0 0 62.695312 120.7168 A 59.966389 59.966389 0 0 0 122.66406 60.748047 A 59.966389 59.966389 0 0 0 62.695312 0.77734375 z M 62.064453 18.060547 C 67.829332 18.082287 72.500012 22.789812 72.474609 28.554688 L 72.46875 30.607422 L 62.134766 40.847656 L 51.5625 29.800781 L 51.570312 28.462891 C 51.582993 25.670384 52.67992 23.055542 54.662109 21.087891 C 56.646113 19.123855 59.295563 17.973339 62.064453 18.060547 z M 40.375 27.273438 C 43.167503 27.333407 45.767903 28.477433 47.699219 30.494141 L 48.285156 31.109375 L 59.822266 43.146484 L 56.261719 46.679688 L 34.154297 46.585938 L 32.595703 44.951172 C 28.609527 40.786943 28.751791 34.155964 32.916016 30.167969 C 34.932724 28.238472 37.566144 27.220747 40.375 27.273438 z M 84.251953 27.847656 C 86.929312 27.859246 89.603385 28.884956 91.632812 30.931641 C 95.689842 35.025014 95.663555 41.661988 91.568359 45.722656 L 46.927734 89.982422 C 42.834349 94.044906 36.201566 94.013166 32.144531 89.917969 C 28.083866 85.824599 28.111824 79.195435 32.207031 75.134766 L 76.847656 30.869141 C 78.894341 28.837899 81.574589 27.836072 84.251953 27.847656 z M 30.453125 49.841797 L 30.494141 49.841797 L 52.978516 49.933594 L 31.980469 70.753906 L 30.410156 70.748047 C 27.617649 70.737177 24.995134 69.636486 23.029297 67.654297 C 21.061646 65.670293 19.987282 63.036644 20 60.244141 C 20.01268 57.449818 21.109612 54.836931 23.091797 52.871094 C 25.064909 50.916157 27.676973 49.841797 30.453125 49.841797 z M 91.794922 50.097656 L 93.365234 50.103516 C 99.130113 50.128876 103.79496 54.842406 103.76953 60.605469 C 103.75863 63.397973 102.65797 66.020629 100.67578 67.988281 C 98.70268 69.943215 96.092558 71.015625 93.316406 71.015625 L 93.273438 71.015625 L 70.796875 70.917969 L 72.298828 69.423828 L 75.587891 66.167969 L 78.800781 62.976562 L 81.130859 60.677734 L 91.794922 50.097656 z M 67.513672 74.179688 L 89.615234 74.271484 L 91.179688 75.898438 C 95.165866 80.062666 95.015915 86.695599 90.853516 90.683594 C 86.691103 94.667954 80.056492 94.525828 76.070312 90.365234 L 63.955078 77.703125 L 67.513672 74.179688 z M 61.632812 80.003906 L 72.208984 91.052734 L 72.207031 91.419922 C 72.181595 97.172082 67.498799 101.8319 61.753906 101.83008 L 61.708984 101.83008 C 55.944106 101.80646 51.273392 97.096908 51.298828 91.332031 L 51.302734 90.246094 L 61.632812 80.003906 z "
       id="Oval-10" />
    <g
       id="Page-1"
       transform="matrix(0.95946224,0,0,0.95946224,19.998624,18.051592)"
       style="fill:#ffffff;fill-opacity:1">
      <g
         id="Group-3"
         transform="translate(32.191489,63.701257)"
         style="fill:#ffffff;fill-opacity:1">
        <mask
           id="mask-3"
           fill="white">
          <use
             xlink:href="#path-2"
             id="use898"
             x="0"
             y="0"
             width="100%"
             height="100%" />
        </mask>
        <g
           id="Clip-2"
           style="fill:#ffffff;fill-opacity:1" />
      </g>
    </g>
  </g>
</svg>
